:FULLY-SPECIFIED
:FORCE-ALL-JOINTS-BE-3DOF
:DEGREES
476
root 3.41311 15.9843 -7.03887 -50.0522 49.8549 -64.0736
lfemur -45.0687 11.0962 -19.4357
ltibia 57.1977 0 0
lfoot -22.1843 -1.34709 0
ltoes 8.19766 0 0
rfemur -18.3431 -1.49399 10.7721
rtibia 40.8498 0 0
rfoot 13.7775 -11.0541 0
rtoes -40.1173 0 0
lowerback 3.60816 0.483504 3.90137
upperback 0.195558 0.785919 2.74481
thorax -1.80804 0.396265 0.607738
lowerneck -7.87644 -6.50541 0.752872
upperneck 5.20814 -8.87267 1.24855
head 3.06194 -4.33046 -0.309105
lclavicle 2.66021e-015 3.55941e-014 0
lhumerus -45.9373 -27.059 108.958
lradius 53.2103 0 0
lwrist 2.67372 0 0
lhand -16.1964 -9.33337 0
lfingers 7.12502 0 0
lthumb 9.97531 19.838 0
rclavicle 2.66021e-015 3.55941e-014 0
rhumerus -39.6864 10.8574 -77.6974
rradius 81.047 0 0
rwrist -2.01456 0 0
rhand -12.6113 -23.7752 0
rfingers 7.12502 0 0
rthumb 13.2275 -770.658 0
477
root 3.48607 15.9929 -6.98506 -53.4234 50.6136 -67.1835
lfemur -44.4664 10.3711 -19.5458
ltibia 57.0943 0 0
lfoot -22.313 -1.30715 0
ltoes 8.07197 0 0
rfemur -19.4648 -1.29052 10.5838
rtibia 41.2939 0 0
rfoot 13.7405 -10.5068 0
rtoes -39.489 0 0
lowerback 3.76662 0.484622 3.76939
upperback 0.235634 0.787823 2.76285
thorax -1.8574 0.398902 0.699286
lowerneck -7.88913 -6.68747 0.60457
upperneck 5.40458 -9.10829 1.29583
head 3.13543 -4.44492 -0.2926
lclavicle 2.78298e-015 3.57812e-014 0
lhumerus -45.9547 -27.2841 109.229
lradius 53.3188 0 0
lwrist 2.78284 0 0
lhand -15.5723 -9.10176 0
lfingers 7.12502 0 0
lthumb 10.5757 20.0191 0
rclavicle 2.78298e-015 3.57812e-014 0
rhumerus -38.8268 11.746 -77.4533
rradius 82.1888 0 0
rwrist -2.74166 0 0
rhand -11.4534 -23.4823 0
rfingers 7.12502 0 0
rthumb 14.3303 -770.175 0
478
root 3.55903 16.0016 -6.93125 -56.7946 51.3722 -70.2933
lfemur -43.8641 9.64611 -19.6559
ltibia 56.9909 0 0
lfoot -22.4418 -1.2672 0
ltoes 7.94628 0 0
rfemur -20.5865 -1.08706 10.3955
rtibia 41.7379 0 0
rfoot 13.7034 -9.95952 0
rtoes -38.8607 0 0
lowerback 3.92508 0.485739 3.6374
upperback 0.27571 0.789727 2.78089
thorax -1.90676 0.40154 0.790834
lowerneck -7.90182 -6.86952 0.456268
upperneck 5.60102 -9.3439 1.3431
head 3.20893 -4.55938 -0.276095
lclavicle 2.90576e-015 3.59683e-014 0
lhumerus -45.972 -27.5092 109.5
lradius 53.4272 0 0
lwrist 2.89196 0 0
lhand -14.9482 -8.87015 0
lfingers 7.12502 0 0
lthumb 11.176 20.2002 0
rclavicle 2.90576e-015 3.59683e-014 0
rhumerus -37.9672 12.6345 -77.2092
rradius 83.3306 0 0
rwrist -3.46876 0 0
rhand -10.2954 -23.1894 0
rfingers 7.12502 0 0
rthumb 15.4331 -769.691 0
479
root 3.63199 16.0103 -6.87744 -60.1657 52.1308 -73.4031
lfemur -43.2618 8.92108 -19.7659
ltibia 56.8874 0 0
lfoot -22.5705 -1.22726 0
ltoes 7.82059 0 0
rfemur -21.7082 -0.883591 10.2071
rtibia 42.1819 0 0
rfoot 13.6663 -9.41225 0
rtoes -38.2325 0 0
lowerback 4.08354 0.486857 3.50542
upperback 0.315787 0.791631 2.79892
thorax -1.95612 0.404177 0.882383
lowerneck -7.91451 -7.05158 0.307965
upperneck 5.79746 -9.57952 1.39038
head 3.28242 -4.67384 -0.259589
lclavicle 3.02854e-015 3.61554e-014 0
lhumerus -45.9893 -27.7343 109.771
lradius 53.5356 0 0
lwrist 3.00108 0 0
lhand -14.324 -8.63854 0
lfingers 7.12502 0 0
lthumb 11.7764 20.3813 0
rclavicle 3.02854e-015 3.61554e-014 0
rhumerus -37.1077 13.523 -76.9652
rradius 84.4723 0 0
rwrist -4.19585 0 0
rhand -9.13743 -22.8965 0
rfingers 7.12502 0 0
rthumb 16.5359 -769.207 0
480
root 3.70495 16.0189 -6.82363 -63.5369 52.8895 -76.513
lfemur -42.6594 8.19605 -19.876
ltibia 56.784 0 0
lfoot -22.6992 -1.18732 0
ltoes 7.6949 0 0
rfemur -22.8299 -0.680125 10.0188
rtibia 42.626 0 0
rfoot 13.6292 -8.86497 0
rtoes -37.6042 0 0
lowerback 4.242 0.487974 3.37344
upperback 0.355863 0.793536 2.81696
thorax -2.00548 0.406815 0.973931
lowerneck -7.9272 -7.23364 0.159663
upperneck 5.99391 -9.81513 1.43766
head 3.35591 -4.78831 -0.243084
lclavicle 3.15132e-015 3.63425e-014 0
lhumerus -46.0067 -27.9594 110.042
lradius 53.6441 0 0
lwrist 3.1102 0 0
lhand -13.6999 -8.40694 0
lfingers 7.12502 0 0
lthumb 12.3767 20.5625 0
rclavicle 3.15132e-015 3.63425e-014 0
rhumerus -36.2481 14.4115 -76.7211
rradius 85.6141 0 0
rwrist -4.92295 0 0
rhand -7.97947 -22.6036 0
rfingers 7.12502 0 0
rthumb 17.6387 -768.724 0
481
root 3.77791 16.0276 -6.76982 -66.9081 53.6481 -79.6228
lfemur -42.0571 7.47102 -19.9861
ltibia 56.6805 0 0
lfoot -22.828 -1.14737 0
ltoes 7.56921 0 0
rfemur -23.9516 -0.476658 9.83047
rtibia 43.07 0 0
rfoot 13.5922 -8.31769 0
rtoes -36.9759 0 0
lowerback 4.40046 0.489092 3.24145
upperback 0.395939 0.79544 2.83499
thorax -2.05484 0.409452 1.06548
lowerneck -7.93989 -7.41569 0.0113606
upperneck 6.19035 -10.0507 1.48494
head 3.4294 -4.90277 -0.226579
lclavicle 3.2741e-015 3.65296e-014 0
lhumerus -46.024 -28.1845 110.313
lradius 53.7525 0 0
lwrist 3.21932 0 0
lhand -13.0758 -8.17533 0
lfingers 7.12502 0 0
lthumb 12.9771 20.7436 0
rclavicle 3.2741e-015 3.65296e-014 0
rhumerus -35.3885 15.3 -76.477
rradius 86.7559 0 0
rwrist -5.65004 0 0
rhand -6.8215 -22.3107 0
rfingers 7.12502 0 0
rthumb 18.7415 -768.24 0
